solid minimug
facet normal -0.289738105094571 -0.955138528791107 -0.0613369486929972
   outer loop
      vertex -2.29523763851081 -11.5389388238978 2.60995760957536e-015
      vertex -4.97488462072609 -12.0104339225989 19.99999999992
      vertex -4.50227058175699 -10.8694426999515 2.49846410781998e-015
   endloop
endfacet
facet normal 0.880260709561129 -0.47050915180044 -0.0613369486929947
   outer loop
      vertex 10.8091049598898 -7.2224130292261 19.99999999992
      vertex 10.8694426999515 -4.50227058175699 1.43811694471435e-015
      vertex 12.010433922599 -4.97488462072609 19.99999999992
   endloop
endfacet
facet normal 0.0 1.66533453693773e-016 1.0
   outer loop
      vertex -4.16952733731732 10.0661294464367 19.99999999992
      vertex -2.53617418619985 12.750208645191 19.99999999992
      vertex -4.97488462072609 12.010433922599 19.99999999992
   endloop
endfacet
facet normal -0.0978325854966206 -0.993310910007578 -0.0613369486929686
   outer loop
      vertex 2.8199664825479e-015 -11.7649999999529 2.64760435796989e-015
      vertex -2.53617418619985 -12.750208645191 19.99999999992
      vertex -2.29523763851081 -11.5389388238978 2.60995760957536e-015
   endloop
endfacet
facet normal -0.99384204180284 0.097884897412568 0.0519282466841847
   outer loop
      vertex 10.6861460225903 -2.12560660351849 19.99999999992
      vertex 9.95499999996017 0.0 1.999999999992
      vertex 9.76371746637494 -1.94212415566323 1.999999999992
   endloop
endfacet
facet normal 0.0978325854966205 -0.993310910007578 -0.0613369486929678
   outer loop
      vertex 2.29523763851082 -11.5389388238978 2.60995760957536e-015
      vertex 2.8199664825479e-015 -12.999999999948 19.99999999992
      vertex 2.8199664825479e-015 -11.7649999999529 2.64760435796989e-015
   endloop
endfacet
facet normal 0.0 1.66533453693773e-016 1.0
   outer loop
      vertex -6.05321547384078 9.05927716080576 19.99999999992
      vertex -4.97488462072609 12.010433922599 19.99999999992
      vertex -7.2224130292261 10.8091049598898 19.99999999992
   endloop
endfacet
facet normal 0.289738105094571 -0.955138528791109 -0.0613369486929682
   outer loop
      vertex 4.50227058175699 -10.8694426999515 2.49846410781998e-015
      vertex 2.53617418619985 -12.750208645191 19.99999999992
      vertex 2.29523763851082 -11.5389388238978 2.60995760957536e-015
   endloop
endfacet
facet normal -0.955649249489401 0.289893030524446 0.051928246684216
   outer loop
      vertex 10.0661294464367 -4.16952733731732 19.99999999992
      vertex 9.76371746637494 -1.94212415566323 1.999999999992
      vertex 9.19722074611321 -3.80961356917876 1.999999999992
   endloop
endfacet
facet normal 0.470509151800319 -0.880260709561194 -0.0613369486929955
   outer loop
      vertex 6.53628379144985 -9.78223998869987 2.31740848545001e-015
      vertex 4.9748846207261 -12.0104339225989 19.99999999992
      vertex 4.50227058175699 -10.8694426999515 2.49846410781998e-015
   endloop
endfacet
facet normal 0.0 1.66533453693773e-016 1.0
   outer loop
      vertex -6.05321547384078 9.05927716080576 19.99999999992
      vertex -7.2224130292261 10.8091049598898 19.99999999992
      vertex -9.19238815538822 9.19238815538823 19.99999999992
   endloop
endfacet
facet normal 0.633198795667098 -0.771554964918749 -0.0613369486929761
   outer loop
      vertex 8.31911128062672 -8.31911128062672 2.07374860849608e-015
      vertex 7.22241302922611 -10.8091049598898 19.99999999992
      vertex 6.53628379144985 -9.78223998869987 2.31740848545001e-015
   endloop
endfacet
facet normal 0.0 1.66533453693773e-016 1.0
   outer loop
      vertex -7.70428193438718 7.70428193438718 19.99999999992
      vertex -6.05321547384078 9.05927716080576 19.99999999992
      vertex -9.19238815538822 9.19238815538823 19.99999999992
   endloop
endfacet
facet normal 0.77155496491875 -0.6331987956671 -0.0613369486929395
   outer loop
      vertex 9.19238815538823 -9.19238815538822 19.99999999992
      vertex 8.31911128062672 -8.31911128062672 2.07374860849608e-015
      vertex 9.78223998869987 -6.53628379144985 1.77684818938326e-015
   endloop
endfacet
facet normal 0.0 1.66533453693773e-016 1.0
   outer loop
      vertex -10.8091049598898 7.22241302922611 19.99999999992
      vertex -7.70428193438718 7.70428193438718 19.99999999992
      vertex -9.19238815538822 9.19238815538823 19.99999999992
   endloop
endfacet
facet normal 0.880260709561195 -0.470509151800319 -0.061336948692978
   outer loop
      vertex 10.8091049598898 -7.2224130292261 19.99999999992
      vertex 9.78223998869987 -6.53628379144985 1.77684818938326e-015
      vertex 10.8694426999515 -4.50227058175699 1.43811694471435e-015
   endloop
endfacet
facet normal 0.0 1.66533453693773e-016 1.0
   outer loop
      vertex -9.05927716080576 6.05321547384079 19.99999999992
      vertex -7.70428193438718 7.70428193438718 19.99999999992
      vertex -10.8091049598898 7.22241302922611 19.99999999992
   endloop
endfacet
facet normal 0.955138528791107 -0.289738105094571 -0.0613369486929973
   outer loop
      vertex 12.010433922599 -4.97488462072609 19.99999999992
      vertex 10.8694426999515 -4.50227058175699 1.43811694471435e-015
      vertex 11.5389388238978 -2.29523763851082 1.07057212625963e-015
   endloop
endfacet
facet normal 0.0 1.66533453693773e-016 1.0
   outer loop
      vertex -12.0104339225989 4.9748846207261 19.99999999992
      vertex -9.05927716080576 6.05321547384079 19.99999999992
      vertex -10.8091049598898 7.22241302922611 19.99999999992
   endloop
endfacet
facet normal 0.993310910007578 -0.0978325854966206 -0.0613369486929687
   outer loop
      vertex 12.750208645191 -2.53617418619985 19.99999999992
      vertex 11.5389388238978 -2.29523763851082 1.07057212625963e-015
      vertex 11.7649999999529 0.0 6.88338275270484e-016
   endloop
endfacet
facet normal 0.993310910007579 0.097832585496614 -0.0613369486929687
   outer loop
      vertex 12.999999999948 2.8199664825479e-015 19.99999999992
      vertex 11.5389388238978 2.29523763851082 3.06104424281337e-016
      vertex 12.750208645191 2.53617418619986 19.99999999992
   endloop
endfacet
facet normal 0.955138528791173 0.289738105094353 -0.0613369486929961
   outer loop
      vertex 12.750208645191 2.53617418619986 19.99999999992
      vertex 10.8694426999515 4.50227058175699 -6.14403941733822e-017
      vertex 12.010433922599 4.9748846207261 19.99999999992
   endloop
endfacet
facet normal 0.88026070956113 0.470509151800441 -0.0613369486929789
   outer loop
      vertex 12.010433922599 4.9748846207261 19.99999999992
      vertex 9.78223998869987 6.53628379144985 -4.00171638842292e-016
      vertex 10.8091049598898 7.22241302922611 19.99999999992
   endloop
endfacet
facet normal 0.771554964918567 0.633198795667323 -0.0613369486929415
   outer loop
      vertex 10.8091049598898 7.22241302922611 19.99999999992
      vertex 8.31911128062672 8.31911128062672 -6.97072057955114e-016
      vertex 9.19238815538823 9.19238815538823 19.99999999992
   endloop
endfacet
facet normal 0.633198795667322 0.771554964918565 -0.0613369486929747
   outer loop
      vertex 9.19238815538823 9.19238815538823 19.99999999992
      vertex 6.53628379144985 9.78223998869987 -9.40731934909044e-016
      vertex 7.22241302922611 10.8091049598898 19.99999999992
   endloop
endfacet
facet normal 0.470509151800439 0.88026070956113 -0.0613369486929949
   outer loop
      vertex 7.22241302922611 10.8091049598898 19.99999999992
      vertex 4.50227058175699 10.8694426999515 -1.12178755727902e-015
      vertex 4.9748846207261 12.010433922599 19.99999999992
   endloop
endfacet
facet normal 0.289738105094353 0.955138528791175 -0.06133694869297
   outer loop
      vertex 4.9748846207261 12.010433922599 19.99999999992
      vertex 2.29523763851082 11.5389388238978 -1.23328105903439e-015
      vertex 2.53617418619985 12.750208645191 19.99999999992
   endloop
endfacet
facet normal 0.0978325854966139 0.993310910007579 -0.0613369486929682
   outer loop
      vertex 2.53617418619985 12.750208645191 19.99999999992
      vertex 2.8199664825479e-015 11.7649999999529 -1.27092780742892e-015
      vertex 2.8199664825479e-015 12.999999999948 19.99999999992
   endloop
endfacet
facet normal -0.0978325854966138 0.993310910007579 -0.0613369486929689
   outer loop
      vertex 2.8199664825479e-015 12.999999999948 19.99999999992
      vertex -2.29523763851081 11.5389388238978 -1.23328105903439e-015
      vertex -2.53617418619985 12.750208645191 19.99999999992
   endloop
endfacet
facet normal -0.289738105094353 0.955138528791173 -0.0613369486929961
   outer loop
      vertex -2.53617418619985 12.750208645191 19.99999999992
      vertex -4.50227058175699 10.8694426999515 -1.12178755727902e-015
      vertex -4.97488462072609 12.010433922599 19.99999999992
   endloop
endfacet
facet normal -0.47050915180044 0.880260709561131 -0.0613369486929791
   outer loop
      vertex -4.97488462072609 12.010433922599 19.99999999992
      vertex -6.53628379144985 9.78223998869987 -9.40731934909044e-016
      vertex -7.2224130292261 10.8091049598898 19.99999999992
   endloop
endfacet
facet normal -0.633198795667323 0.771554964918567 -0.0613369486929416
   outer loop
      vertex -7.2224130292261 10.8091049598898 19.99999999992
      vertex -8.31911128062672 8.31911128062672 -6.97072057955114e-016
      vertex -9.19238815538822 9.19238815538823 19.99999999992
   endloop
endfacet
facet normal -0.771554964918565 0.633198795667322 -0.0613369486929746
   outer loop
      vertex -9.19238815538822 9.19238815538823 19.99999999992
      vertex -9.78223998869986 6.53628379144985 -4.00171638842292e-016
      vertex -10.8091049598898 7.22241302922611 19.99999999992
   endloop
endfacet
facet normal -0.88026070956113 0.47050915180044 -0.0613369486929949
   outer loop
      vertex -10.8091049598898 7.22241302922611 19.99999999992
      vertex -10.8694426999515 4.50227058175699 -6.14403941733822e-017
      vertex -12.0104339225989 4.9748846207261 19.99999999992
   endloop
endfacet
facet normal -0.955138528791175 0.289738105094353 -0.0613369486929699
   outer loop
      vertex -12.0104339225989 4.9748846207261 19.99999999992
      vertex -11.5389388238978 2.29523763851082 3.06104424281337e-016
      vertex -12.750208645191 2.53617418619986 19.99999999992
   endloop
endfacet
facet normal -0.993310910007579 0.0978325854966139 -0.061336948692968
   outer loop
      vertex -12.750208645191 2.53617418619986 19.99999999992
      vertex -11.7649999999529 0.0 6.88338275270484e-016
      vertex -12.999999999948 2.8199664825479e-015 19.99999999992
   endloop
endfacet
facet normal -0.993310910007579 -0.0978325854966139 -0.0613369486929687
   outer loop
      vertex -12.999999999948 2.8199664825479e-015 19.99999999992
      vertex -11.5389388238978 -2.29523763851082 1.07057212625963e-015
      vertex -12.750208645191 -2.53617418619985 19.99999999992
   endloop
endfacet
facet normal -0.955138528791173 -0.289738105094353 -0.0613369486929959
   outer loop
      vertex -12.750208645191 -2.53617418619985 19.99999999992
      vertex -10.8694426999515 -4.50227058175699 1.43811694471435e-015
      vertex -12.0104339225989 -4.97488462072609 19.99999999992
   endloop
endfacet
facet normal -0.880260709561131 -0.47050915180044 -0.061336948692979
   outer loop
      vertex -12.0104339225989 -4.97488462072609 19.99999999992
      vertex -9.78223998869986 -6.53628379144985 1.77684818938326e-015
      vertex -10.8091049598898 -7.2224130292261 19.99999999992
   endloop
endfacet
facet normal -0.771554964918567 -0.633198795667324 -0.0613369486929413
   outer loop
      vertex -10.8091049598898 -7.2224130292261 19.99999999992
      vertex -8.31911128062672 -8.31911128062672 2.07374860849608e-015
      vertex -9.19238815538822 -9.19238815538822 19.99999999992
   endloop
endfacet
facet normal -0.633198795667322 -0.771554964918566 -0.0613369486929743
   outer loop
      vertex -6.53628379144985 -9.78223998869987 2.31740848545001e-015
      vertex -7.2224130292261 -10.8091049598898 19.99999999992
      vertex -9.19238815538822 -9.19238815538822 19.99999999992
   endloop
endfacet
facet normal -0.470509151800441 -0.880260709561129 -0.0613369486929947
   outer loop
      vertex -4.50227058175699 -10.8694426999515 2.49846410781998e-015
      vertex -4.97488462072609 -12.0104339225989 19.99999999992
      vertex -7.2224130292261 -10.8091049598898 19.99999999992
   endloop
endfacet
facet normal -0.289738105094353 -0.955138528791175 -0.0613369486929696
   outer loop
      vertex -2.29523763851081 -11.5389388238978 2.60995760957536e-015
      vertex -2.53617418619985 -12.750208645191 19.99999999992
      vertex -4.97488462072609 -12.0104339225989 19.99999999992
   endloop
endfacet
facet normal -0.0978325854966141 -0.993310910007579 -0.0613369486929678
   outer loop
      vertex 2.8199664825479e-015 -12.999999999948 19.99999999992
      vertex -2.53617418619985 -12.750208645191 19.99999999992
      vertex 2.8199664825479e-015 -11.7649999999529 2.64760435796989e-015
   endloop
endfacet
facet normal 0.0978325854966142 -0.993310910007579 -0.0613369486929685
   outer loop
      vertex 2.53617418619985 -12.750208645191 19.99999999992
      vertex 2.8199664825479e-015 -12.999999999948 19.99999999992
      vertex 2.29523763851082 -11.5389388238978 2.60995760957536e-015
   endloop
endfacet
facet normal 0.289738105094352 -0.955138528791173 -0.0613369486929959
   outer loop
      vertex 4.9748846207261 -12.0104339225989 19.99999999992
      vertex 2.53617418619985 -12.750208645191 19.99999999992
      vertex 4.50227058175699 -10.8694426999515 2.49846410781998e-015
   endloop
endfacet
facet normal 0.470509151800441 -0.88026070956113 -0.0613369486929788
   outer loop
      vertex 7.22241302922611 -10.8091049598898 19.99999999992
      vertex 4.9748846207261 -12.0104339225989 19.99999999992
      vertex 6.53628379144985 -9.78223998869987 2.31740848545001e-015
   endloop
endfacet
facet normal 0.633198795667323 -0.771554964918567 -0.0613369486929412
   outer loop
      vertex 9.19238815538823 -9.19238815538822 19.99999999992
      vertex 7.22241302922611 -10.8091049598898 19.99999999992
      vertex 8.31911128062672 -8.31911128062672 2.07374860849608e-015
   endloop
endfacet
facet normal 0.771554964918565 -0.633198795667322 -0.0613369486929744
   outer loop
      vertex 9.19238815538823 -9.19238815538822 19.99999999992
      vertex 9.78223998869987 -6.53628379144985 1.77684818938326e-015
      vertex 10.8091049598898 -7.2224130292261 19.99999999992
   endloop
endfacet
facet normal 0.993310910007579 -0.0978325854966142 -0.0613369486929679
   outer loop
      vertex 12.750208645191 -2.53617418619985 19.99999999992
      vertex 11.7649999999529 0.0 6.88338275270484e-016
      vertex 12.999999999948 2.8199664825479e-015 19.99999999992
   endloop
endfacet
facet normal 0.955138528791175 -0.289738105094353 -0.0613369486929697
   outer loop
      vertex 12.010433922599 -4.97488462072609 19.99999999992
      vertex 11.5389388238978 -2.29523763851082 1.07057212625963e-015
      vertex 12.750208645191 -2.53617418619985 19.99999999992
   endloop
endfacet
facet normal 0.0 1.66533453693773e-016 1.0
   outer loop
      vertex 2.8199664825479e-015 10.8954999999564 19.99999999992
      vertex 2.8199664825479e-015 12.999999999948 19.99999999992
      vertex -2.53617418619985 12.750208645191 19.99999999992
   endloop
endfacet
facet normal 0.0 1.66533453693773e-016 1.0
   outer loop
      vertex 6.05321547384078 9.05927716080576 19.99999999992
      vertex 4.9748846207261 12.010433922599 19.99999999992
      vertex 4.16952733731732 10.0661294464367 19.99999999992
   endloop
endfacet
facet normal 0.0 1.66533453693773e-016 1.0
   outer loop
      vertex -2.12560660351849 10.6861460225903 19.99999999992
      vertex 2.8199664825479e-015 10.8954999999564 19.99999999992
      vertex -2.53617418619985 12.750208645191 19.99999999992
   endloop
endfacet
facet normal -0.880260709561194 -0.470509151800319 -0.0613369486929955
   outer loop
      vertex -12.0104339225989 -4.97488462072609 19.99999999992
      vertex -10.8694426999515 -4.50227058175699 1.43811694471435e-015
      vertex -9.78223998869986 -6.53628379144985 1.77684818938326e-015
   endloop
endfacet
facet normal -0.633198795667101 -0.77155496491875 -0.0613369486929395
   outer loop
      vertex -6.53628379144985 -9.78223998869987 2.31740848545001e-015
      vertex -9.19238815538822 -9.19238815538822 19.99999999992
      vertex -8.31911128062672 -8.31911128062672 2.07374860849608e-015
   endloop
endfacet
facet normal -0.470509151800318 -0.880260709561196 -0.0613369486929779
   outer loop
      vertex -4.50227058175699 -10.8694426999515 2.49846410781998e-015
      vertex -7.2224130292261 -10.8091049598898 19.99999999992
      vertex -6.53628379144985 -9.78223998869987 2.31740848545001e-015
   endloop
endfacet
facet normal -0.771967521923164 0.633537372450998 0.0519282466842028
   outer loop
      vertex 7.70428193438718 -7.70428193438717 19.99999999992
      vertex 8.27727999043889 -5.53070166968788 1.999999999992
      vertex 7.03924800668384 -7.03924800668384 1.999999999992
   endloop
endfacet
facet normal -0.993310910007578 0.0978325854966203 -0.0613369486929688
   outer loop
      vertex -12.750208645191 2.53617418619986 19.99999999992
      vertex -11.5389388238978 2.29523763851082 3.06104424281337e-016
      vertex -11.7649999999529 0.0 6.88338275270484e-016
   endloop
endfacet
facet normal -0.880260709561196 0.470509151800319 -0.0613369486929782
   outer loop
      vertex -10.8091049598898 7.22241302922611 19.99999999992
      vertex -9.78223998869986 6.53628379144985 -4.00171638842292e-016
      vertex -10.8694426999515 4.50227058175699 -6.14403941733822e-017
   endloop
endfacet
facet normal -0.771554964918749 -0.633198795667099 -0.0613369486929763
   outer loop
      vertex -10.8091049598898 -7.2224130292261 19.99999999992
      vertex -9.78223998869986 -6.53628379144985 1.77684818938326e-015
      vertex -8.31911128062672 -8.31911128062672 2.07374860849608e-015
   endloop
endfacet
facet normal 0.0 1.66533453693773e-016 1.0
   outer loop
      vertex 4.16952733731732 10.0661294464367 19.99999999992
      vertex 2.53617418619985 12.750208645191 19.99999999992
      vertex 2.1256066035185 10.6861460225903 19.99999999992
   endloop
endfacet
facet normal -0.77155496491875 0.633198795667101 -0.0613369486929398
   outer loop
      vertex -9.19238815538822 9.19238815538823 19.99999999992
      vertex -8.31911128062672 8.31911128062672 -6.97072057955114e-016
      vertex -9.78223998869986 6.53628379144985 -4.00171638842292e-016
   endloop
endfacet
facet normal 0.0 1.66533453693773e-016 1.0
   outer loop
      vertex 9.05927716080576 6.05321547384079 19.99999999992
      vertex 9.19238815538823 9.19238815538823 19.99999999992
      vertex 7.70428193438718 7.70428193438718 19.99999999992
   endloop
endfacet
facet normal -0.633198795667099 0.771554964918748 -0.0613369486929763
   outer loop
      vertex -6.53628379144985 9.78223998869987 -9.40731934909044e-016
      vertex -8.31911128062672 8.31911128062672 -6.97072057955114e-016
      vertex -7.2224130292261 10.8091049598898 19.99999999992
   endloop
endfacet
facet normal 0.0 1.66533453693773e-016 1.0
   outer loop
      vertex 9.05927716080576 6.05321547384079 19.99999999992
      vertex 10.8091049598898 7.22241302922611 19.99999999992
      vertex 9.19238815538823 9.19238815538823 19.99999999992
   endloop
endfacet
facet normal -0.470509151800318 0.880260709561195 -0.0613369486929957
   outer loop
      vertex -4.50227058175699 10.8694426999515 -1.12178755727902e-015
      vertex -6.53628379144985 9.78223998869987 -9.40731934909044e-016
      vertex -4.97488462072609 12.010433922599 19.99999999992
   endloop
endfacet
facet normal 0.0 1.66533453693773e-016 1.0
   outer loop
      vertex 10.0661294464367 4.16952733731732 19.99999999992
      vertex 10.8091049598898 7.22241302922611 19.99999999992
      vertex 9.05927716080576 6.05321547384079 19.99999999992
   endloop
endfacet
facet normal 0.0 1.66533453693773e-016 1.0
   outer loop
      vertex 6.05321547384078 9.05927716080576 19.99999999992
      vertex 7.22241302922611 10.8091049598898 19.99999999992
      vertex 4.9748846207261 12.010433922599 19.99999999992
   endloop
endfacet
facet normal -0.289738105094571 0.955138528791109 -0.0613369486929686
   outer loop
      vertex -2.29523763851081 11.5389388238978 -1.23328105903439e-015
      vertex -4.50227058175699 10.8694426999515 -1.12178755727902e-015
      vertex -2.53617418619985 12.750208645191 19.99999999992
   endloop
endfacet
facet normal -0.955138528791109 -0.289738105094571 -0.0613369486929684
   outer loop
      vertex -12.750208645191 -2.53617418619985 19.99999999992
      vertex -11.5389388238978 -2.29523763851082 1.07057212625963e-015
      vertex -10.8694426999515 -4.50227058175699 1.43811694471435e-015
   endloop
endfacet
facet normal 0.0 1.66533453693773e-016 1.0
   outer loop
      vertex 10.0661294464367 4.16952733731732 19.99999999992
      vertex 12.010433922599 4.9748846207261 19.99999999992
      vertex 10.8091049598898 7.22241302922611 19.99999999992
   endloop
endfacet
facet normal -0.0978325854966201 0.993310910007578 -0.0613369486929681
   outer loop
      vertex 2.8199664825479e-015 11.7649999999529 -1.27092780742892e-015
      vertex -2.29523763851081 11.5389388238978 -1.23328105903439e-015
      vertex 2.8199664825479e-015 12.999999999948 19.99999999992
   endloop
endfacet
facet normal 0.0 1.66533453693773e-016 1.0
   outer loop
      vertex 10.6861460225903 2.1256066035185 19.99999999992
      vertex 12.010433922599 4.9748846207261 19.99999999992
      vertex 10.0661294464367 4.16952733731732 19.99999999992
   endloop
endfacet
facet normal 0.0 1.66533453693773e-016 1.0
   outer loop
      vertex 2.8199664825479e-015 10.8954999999564 19.99999999992
      vertex 2.53617418619985 12.750208645191 19.99999999992
      vertex 2.8199664825479e-015 12.999999999948 19.99999999992
   endloop
endfacet
facet normal -0.955649249489403 -0.289893030524446 0.0519282466841833
   outer loop
      vertex 10.6861460225903 2.1256066035185 19.99999999992
      vertex 9.19722074611321 3.80961356917876 1.999999999992
      vertex 9.76371746637494 1.94212415566323 1.999999999992
   endloop
endfacet
facet normal -0.993310910007578 -0.0978325854966203 -0.0613369486929679
   outer loop
      vertex -12.999999999948 2.8199664825479e-015 19.99999999992
      vertex -11.7649999999529 0.0 6.88338275270484e-016
      vertex -11.5389388238978 -2.29523763851082 1.07057212625963e-015
   endloop
endfacet
facet normal 0.0 1.66533453693773e-016 1.0
   outer loop
      vertex 4.16952733731732 10.0661294464367 19.99999999992
      vertex 4.9748846207261 12.010433922599 19.99999999992
      vertex 2.53617418619985 12.750208645191 19.99999999992
   endloop
endfacet
facet normal 0.0 1.66533453693773e-016 1.0
   outer loop
      vertex 7.70428193438718 7.70428193438718 19.99999999992
      vertex 9.19238815538823 9.19238815538823 19.99999999992
      vertex 7.22241302922611 10.8091049598898 19.99999999992
   endloop
endfacet
facet normal 0.0 1.66533453693773e-016 1.0
   outer loop
      vertex 7.70428193438718 7.70428193438718 19.99999999992
      vertex 7.22241302922611 10.8091049598898 19.99999999992
      vertex 6.05321547384078 9.05927716080576 19.99999999992
   endloop
endfacet
facet normal -0.955138528791107 0.28973810509457 -0.0613369486929974
   outer loop
      vertex -12.0104339225989 4.9748846207261 19.99999999992
      vertex -10.8694426999515 4.50227058175699 -6.14403941733822e-017
      vertex -11.5389388238978 2.29523763851082 3.06104424281337e-016
   endloop
endfacet
facet normal 0.0 -1.66533453693773e-016 -1.0
   outer loop
      vertex 6.53628379144985 -9.78223998869987 2.31740848545001e-015
      vertex 11.7649999999529 0.0 6.88338275270484e-016
      vertex 8.31911128062672 -8.31911128062672 2.07374860849608e-015
   endloop
endfacet
facet normal 0.289893030524446 0.955649249489401 0.0519282466842159
   outer loop
      vertex -1.94212415566323 -9.76371746637494 1.999999999992
      vertex -3.80961356917876 -9.1972207461132 1.999999999992
      vertex -4.16952733731732 -10.0661294464367 19.99999999992
   endloop
endfacet
facet normal 0.0 -1.66533453693773e-016 -1.0
   outer loop
      vertex 8.31911128062672 -8.31911128062672 2.07374860849608e-015
      vertex 11.7649999999529 0.0 6.88338275270484e-016
      vertex 9.78223998869987 -6.53628379144985 1.77684818938326e-015
   endloop
endfacet
facet normal -0.09788489741257 -0.99384204180284 0.051928246684185
   outer loop
      vertex 2.1256066035185 10.6861460225903 19.99999999992
      vertex 2.8199664825479e-015 9.95499999996017 1.999999999992
      vertex 1.94212415566323 9.76371746637494 1.999999999992
   endloop
endfacet
facet normal 0.0 -1.66533453693773e-016 -1.0
   outer loop
      vertex 9.78223998869987 -6.53628379144985 1.77684818938326e-015
      vertex 11.7649999999529 0.0 6.88338275270484e-016
      vertex 10.8694426999515 -4.50227058175699 1.43811694471435e-015
   endloop
endfacet
facet normal 0.47076073704715 0.880731392452394 0.0519282466841733
   outer loop
      vertex -3.80961356917876 -9.1972207461132 1.999999999992
      vertex -5.53070166968787 -8.27727999043888 1.999999999992
      vertex -6.05321547384078 -9.05927716080576 19.99999999992
   endloop
endfacet
facet normal 0.0 -1.66533453693773e-016 -1.0
   outer loop
      vertex 10.8694426999515 -4.50227058175699 1.43811694471435e-015
      vertex 11.7649999999529 0.0 6.88338275270484e-016
      vertex 11.5389388238978 -2.29523763851082 1.07057212625963e-015
   endloop
endfacet
facet normal -0.47076073704715 -0.880731392452394 0.0519282466841733
   outer loop
      vertex 6.05321547384078 9.05927716080576 19.99999999992
      vertex 3.80961356917876 9.19722074611321 1.999999999992
      vertex 5.53070166968788 8.27727999043889 1.999999999992
   endloop
endfacet
facet normal 0.0 1.66533453693773e-016 1.0
   outer loop
      vertex 7.22241302922611 -10.8091049598898 19.99999999992
      vertex 7.70428193438718 -7.70428193438717 19.99999999992
      vertex 6.05321547384078 -9.05927716080576 19.99999999992
   endloop
endfacet
facet normal 0.993310910007578 0.0978325854966204 -0.0613369486929679
   outer loop
      vertex 12.999999999948 2.8199664825479e-015 19.99999999992
      vertex 11.7649999999529 0.0 6.88338275270484e-016
      vertex 11.5389388238978 2.29523763851082 3.06104424281337e-016
   endloop
endfacet
facet normal 0.0 1.66533453693773e-016 1.0
   outer loop
      vertex 9.19238815538823 -9.19238815538822 19.99999999992
      vertex 9.05927716080576 -6.05321547384078 19.99999999992
      vertex 7.70428193438718 -7.70428193438717 19.99999999992
   endloop
endfacet
facet normal 0.955138528791109 0.289738105094571 -0.0613369486929685
   outer loop
      vertex 12.750208645191 2.53617418619986 19.99999999992
      vertex 11.5389388238978 2.29523763851082 3.06104424281337e-016
      vertex 10.8694426999515 4.50227058175699 -6.14403941733822e-017
   endloop
endfacet
facet normal 0.955649249489402 -0.289893030524444 0.0519282466842159
   outer loop
      vertex -10.0661294464367 4.16952733731732 19.99999999992
      vertex -9.76371746637494 1.94212415566323 1.999999999992
      vertex -9.1972207461132 3.80961356917876 1.999999999992
   endloop
endfacet
facet normal 0.880260709561195 0.470509151800318 -0.0613369486929957
   outer loop
      vertex 12.010433922599 4.9748846207261 19.99999999992
      vertex 10.8694426999515 4.50227058175699 -6.14403941733822e-017
      vertex 9.78223998869987 6.53628379144985 -4.00171638842292e-016
   endloop
endfacet
facet normal 0.0 1.66533453693773e-016 1.0
   outer loop
      vertex 12.010433922599 -4.97488462072609 19.99999999992
      vertex 10.6861460225903 -2.12560660351849 19.99999999992
      vertex 10.0661294464367 -4.16952733731732 19.99999999992
   endloop
endfacet
facet normal 0.771554964918748 0.633198795667099 -0.0613369486929762
   outer loop
      vertex 10.8091049598898 7.22241302922611 19.99999999992
      vertex 9.78223998869987 6.53628379144985 -4.00171638842292e-016
      vertex 8.31911128062672 8.31911128062672 -6.97072057955114e-016
   endloop
endfacet
facet normal -0.470760737047148 0.880731392452391 0.0519282466842221
   outer loop
      vertex 5.53070166968788 -8.27727999043888 1.999999999992
      vertex 3.80961356917876 -9.1972207461132 1.999999999992
      vertex 4.16952733731732 -10.0661294464367 19.99999999992
   endloop
endfacet
facet normal 0.6331987956671 0.77155496491875 -0.0613369486929398
   outer loop
      vertex 9.19238815538823 9.19238815538823 19.99999999992
      vertex 8.31911128062672 8.31911128062672 -6.97072057955114e-016
      vertex 6.53628379144985 9.78223998869987 -9.40731934909044e-016
   endloop
endfacet
facet normal 0.0 1.66533453693773e-016 1.0
   outer loop
      vertex 12.999999999948 2.8199664825479e-015 19.99999999992
      vertex 12.750208645191 2.53617418619986 19.99999999992
      vertex 10.8954999999564 2.8199664825479e-015 19.99999999992
   endloop
endfacet
facet normal 0.470509151800319 0.880260709561195 -0.0613369486929784
   outer loop
      vertex 7.22241302922611 10.8091049598898 19.99999999992
      vertex 6.53628379144985 9.78223998869987 -9.40731934909044e-016
      vertex 4.50227058175699 10.8694426999515 -1.12178755727902e-015
   endloop
endfacet
facet normal 0.0 1.66533453693773e-016 1.0
   outer loop
      vertex 10.8954999999564 2.8199664825479e-015 19.99999999992
      vertex 12.750208645191 2.53617418619986 19.99999999992
      vertex 10.6861460225903 2.1256066035185 19.99999999992
   endloop
endfacet
facet normal 0.289738105094571 0.955138528791107 -0.0613369486929975
   outer loop
      vertex 4.9748846207261 12.010433922599 19.99999999992
      vertex 4.50227058175699 10.8694426999515 -1.12178755727902e-015
      vertex 2.29523763851082 11.5389388238978 -1.23328105903439e-015
   endloop
endfacet
facet normal 0.0 1.66533453693773e-016 1.0
   outer loop
      vertex 10.6861460225903 2.1256066035185 19.99999999992
      vertex 12.750208645191 2.53617418619986 19.99999999992
      vertex 12.010433922599 4.9748846207261 19.99999999992
   endloop
endfacet
facet normal 0.0978325854966202 0.993310910007578 -0.0613369486929689
   outer loop
      vertex 2.53617418619985 12.750208645191 19.99999999992
      vertex 2.29523763851082 11.5389388238978 -1.23328105903439e-015
      vertex 2.8199664825479e-015 11.7649999999529 -1.27092780742892e-015
   endloop
endfacet
facet normal 0.771967521923163 -0.633537372450999 0.0519282466842032
   outer loop
      vertex -7.70428193438718 7.70428193438718 19.99999999992
      vertex -8.27727999043888 5.53070166968787 1.999999999992
      vertex -7.03924800668384 7.03924800668384 1.999999999992
   endloop
endfacet
facet normal 0.0 -1.66533453693773e-016 -1.0
   outer loop
      vertex 11.7649999999529 0.0 6.88338275270484e-016
      vertex -4.50227058175699 10.8694426999515 -1.12178755727902e-015
      vertex -2.29523763851081 11.5389388238978 -1.23328105903439e-015
   endloop
endfacet
facet normal 0.880731392452391 0.470760737047149 0.0519282466842221
   outer loop
      vertex -10.0661294464367 -4.16952733731732 19.99999999992
      vertex -8.27727999043888 -5.53070166968788 1.999999999992
      vertex -9.1972207461132 -3.80961356917876 1.999999999992
   endloop
endfacet
facet normal 0.0 -1.66533453693773e-016 -1.0
   outer loop
      vertex 11.7649999999529 0.0 6.88338275270484e-016
      vertex -6.53628379144985 9.78223998869987 -9.40731934909044e-016
      vertex -4.50227058175699 10.8694426999515 -1.12178755727902e-015
   endloop
endfacet
facet normal 0.955649249489404 0.289893030524445 0.0519282466841833
   outer loop
      vertex -10.6861460225902 -2.12560660351849 19.99999999992
      vertex -9.1972207461132 -3.80961356917876 1.999999999992
      vertex -9.76371746637494 -1.94212415566323 1.999999999992
   endloop
endfacet
facet normal 0.0 -1.66533453693773e-016 -1.0
   outer loop
      vertex 11.7649999999529 0.0 6.88338275270484e-016
      vertex -8.31911128062672 8.31911128062672 -6.97072057955114e-016
      vertex -6.53628379144985 9.78223998869987 -9.40731934909044e-016
   endloop
endfacet
facet normal 0.0 1.66533453693773e-016 1.0
   outer loop
      vertex 2.1256066035185 10.6861460225903 19.99999999992
      vertex 2.53617418619985 12.750208645191 19.99999999992
      vertex 2.8199664825479e-015 10.8954999999564 19.99999999992
   endloop
endfacet
facet normal 0.0 -1.66533453693773e-016 -1.0
   outer loop
      vertex 11.7649999999529 0.0 6.88338275270484e-016
      vertex -9.78223998869986 6.53628379144985 -4.00171638842292e-016
      vertex -8.31911128062672 8.31911128062672 -6.97072057955114e-016
   endloop
endfacet
facet normal 0.633537372450999 -0.771967521923164 0.0519282466841774
   outer loop
      vertex -5.53070166968787 8.27727999043889 1.999999999992
      vertex -6.05321547384078 9.05927716080576 19.99999999992
      vertex -7.03924800668384 7.03924800668384 1.999999999992
   endloop
endfacet
facet normal 0.0 -1.66533453693773e-016 -1.0
   outer loop
      vertex 11.7649999999529 0.0 6.88338275270484e-016
      vertex -10.8694426999515 4.50227058175699 -6.14403941733822e-017
      vertex -9.78223998869986 6.53628379144985 -4.00171638842292e-016
   endloop
endfacet
facet normal 0.0 1.66533453693773e-016 1.0
   outer loop
      vertex -4.16952733731732 10.0661294464367 19.99999999992
      vertex -2.12560660351849 10.6861460225903 19.99999999992
      vertex -2.53617418619985 12.750208645191 19.99999999992
   endloop
endfacet
facet normal 0.0 -1.66533453693773e-016 -1.0
   outer loop
      vertex 11.7649999999529 0.0 6.88338275270484e-016
      vertex -11.5389388238978 2.29523763851082 3.06104424281337e-016
      vertex -10.8694426999515 4.50227058175699 -6.14403941733822e-017
   endloop
endfacet
facet normal 0.0 1.66533453693773e-016 1.0
   outer loop
      vertex -6.05321547384078 9.05927716080576 19.99999999992
      vertex -4.16952733731732 10.0661294464367 19.99999999992
      vertex -4.97488462072609 12.010433922599 19.99999999992
   endloop
endfacet
facet normal 0.0 -1.66533453693773e-016 -1.0
   outer loop
      vertex -11.7649999999529 0.0 6.88338275270484e-016
      vertex -11.5389388238978 2.29523763851082 3.06104424281337e-016
      vertex 11.7649999999529 0.0 6.88338275270484e-016
   endloop
endfacet
facet normal -0.880731392452391 -0.470760737047149 0.0519282466842224
   outer loop
      vertex 10.0661294464367 4.16952733731732 19.99999999992
      vertex 8.27727999043889 5.53070166968787 1.999999999992
      vertex 9.19722074611321 3.80961356917876 1.999999999992
   endloop
endfacet
facet normal 0.0 -1.66533453693773e-016 -1.0
   outer loop
      vertex -11.5389388238978 -2.29523763851082 1.07057212625963e-015
      vertex -11.7649999999529 0.0 6.88338275270484e-016
      vertex 11.7649999999529 0.0 6.88338275270484e-016
   endloop
endfacet
facet normal 0.993842041802839 0.0978848974125699 0.0519282466841984
   outer loop
      vertex -10.8954999999564 2.8199664825479e-015 19.99999999992
      vertex -9.76371746637494 -1.94212415566323 1.999999999992
      vertex -9.95499999996017 0.0 1.999999999992
   endloop
endfacet
facet normal 0.0 -1.66533453693773e-016 -1.0
   outer loop
      vertex -10.8694426999515 -4.50227058175699 1.43811694471435e-015
      vertex -11.5389388238978 -2.29523763851082 1.07057212625963e-015
      vertex 11.7649999999529 0.0 6.88338275270484e-016
   endloop
endfacet
facet normal 0.470760737047149 -0.880731392452391 0.0519282466842223
   outer loop
      vertex -3.80961356917876 9.19722074611321 1.999999999992
      vertex -4.16952733731732 10.0661294464367 19.99999999992
      vertex -5.53070166968787 8.27727999043889 1.999999999992
   endloop
endfacet
facet normal 0.0978848974125699 -0.993842041802839 0.0519282466841985
   outer loop
      vertex 2.8199664825479e-015 10.8954999999564 19.99999999992
      vertex -1.94212415566323 9.76371746637494 1.999999999992
      vertex 2.8199664825479e-015 9.95499999996017 1.999999999992
   endloop
endfacet
facet normal -0.0978848974125678 0.993842041802839 0.0519282466841982
   outer loop
      vertex 1.94212415566323 -9.76371746637494 1.999999999992
      vertex 2.8199664825479e-015 -9.95499999996017 1.999999999992
      vertex 2.8199664825479e-015 -10.8954999999564 19.99999999992
   endloop
endfacet
facet normal 0.0 1.66533453693773e-016 1.0
   outer loop
      vertex -7.70428193438718 -7.70428193438717 19.99999999992
      vertex -9.05927716080576 -6.05321547384078 19.99999999992
      vertex -10.8091049598898 -7.2224130292261 19.99999999992
   endloop
endfacet
facet normal 0.0 -1.66533453693773e-016 -1.0
   outer loop
      vertex 2.8199664825479e-015 -11.7649999999529 2.64760435796989e-015
      vertex 11.7649999999529 0.0 6.88338275270484e-016
      vertex 2.29523763851082 -11.5389388238978 2.60995760957536e-015
   endloop
endfacet
facet normal 0.99384204180284 -0.09788489741257 0.0519282466841849
   outer loop
      vertex -10.6861460225902 2.1256066035185 19.99999999992
      vertex -9.95499999996017 0.0 1.999999999992
      vertex -9.76371746637494 1.94212415566323 1.999999999992
   endloop
endfacet
facet normal 0.0 -1.66533453693773e-016 -1.0
   outer loop
      vertex 2.29523763851082 -11.5389388238978 2.60995760957536e-015
      vertex 11.7649999999529 0.0 6.88338275270484e-016
      vertex 4.50227058175699 -10.8694426999515 2.49846410781998e-015
   endloop
endfacet
facet normal -0.771967521923165 -0.633537372450999 0.0519282466841774
   outer loop
      vertex 9.05927716080576 6.05321547384079 19.99999999992
      vertex 7.03924800668384 7.03924800668384 1.999999999992
      vertex 8.27727999043889 5.53070166968787 1.999999999992
   endloop
endfacet
facet normal 0.0 -1.66533453693773e-016 -1.0
   outer loop
      vertex 4.50227058175699 -10.8694426999515 2.49846410781998e-015
      vertex 11.7649999999529 0.0 6.88338275270484e-016
      vertex 6.53628379144985 -9.78223998869987 2.31740848545001e-015
   endloop
endfacet
facet normal 0.0 1.66533453693773e-016 1.0
   outer loop
      vertex 3.80961356917876 -9.1972207461132 1.999999999992
      vertex -9.76371746637494 -1.94212415566323 1.999999999992
      vertex -9.1972207461132 -3.80961356917876 1.999999999992
   endloop
endfacet
facet normal 0.0 1.66533453693773e-016 1.0
   outer loop
      vertex 7.22241302922611 -10.8091049598898 19.99999999992
      vertex 9.19238815538823 -9.19238815538822 19.99999999992
      vertex 7.70428193438718 -7.70428193438717 19.99999999992
   endloop
endfacet
facet normal -0.880731392452394 0.47076073704715 0.0519282466841732
   outer loop
      vertex 9.05927716080576 -6.05321547384078 19.99999999992
      vertex 9.19722074611321 -3.80961356917876 1.999999999992
      vertex 8.27727999043889 -5.53070166968788 1.999999999992
   endloop
endfacet
facet normal 0.0 1.66533453693773e-016 1.0
   outer loop
      vertex 3.80961356917876 -9.1972207461132 1.999999999992
      vertex -8.27727999043888 -5.53070166968788 1.999999999992
      vertex -7.03924800668384 -7.03924800668384 1.999999999992
   endloop
endfacet
facet normal 0.0 1.66533453693773e-016 1.0
   outer loop
      vertex 9.19238815538823 -9.19238815538822 19.99999999992
      vertex 10.8091049598898 -7.2224130292261 19.99999999992
      vertex 9.05927716080576 -6.05321547384078 19.99999999992
   endloop
endfacet
facet normal 0.0978848974125679 0.99384204180284 0.0519282466841846
   outer loop
      vertex 2.8199664825479e-015 -9.95499999996017 1.999999999992
      vertex -1.94212415566323 -9.76371746637494 1.999999999992
      vertex -2.12560660351849 -10.6861460225902 19.99999999992
   endloop
endfacet
facet normal 0.0 1.66533453693773e-016 1.0
   outer loop
      vertex 3.80961356917876 -9.1972207461132 1.999999999992
      vertex -5.53070166968787 -8.27727999043888 1.999999999992
      vertex -3.80961356917876 -9.1972207461132 1.999999999992
   endloop
endfacet
facet normal 0.0 1.66533453693773e-016 1.0
   outer loop
      vertex 10.8091049598898 -7.2224130292261 19.99999999992
      vertex 12.010433922599 -4.97488462072609 19.99999999992
      vertex 9.05927716080576 -6.05321547384078 19.99999999992
   endloop
endfacet
facet normal 0.0 1.66533453693773e-016 1.0
   outer loop
      vertex 9.05927716080576 -6.05321547384078 19.99999999992
      vertex 12.010433922599 -4.97488462072609 19.99999999992
      vertex 10.0661294464367 -4.16952733731732 19.99999999992
   endloop
endfacet
facet normal 0.0 1.66533453693773e-016 1.0
   outer loop
      vertex 2.8199664825479e-015 -9.95499999996017 1.999999999992
      vertex 3.80961356917876 -9.1972207461132 1.999999999992
      vertex -1.94212415566323 -9.76371746637494 1.999999999992
   endloop
endfacet
facet normal 0.0 1.66533453693773e-016 1.0
   outer loop
      vertex 12.010433922599 -4.97488462072609 19.99999999992
      vertex 12.750208645191 -2.53617418619985 19.99999999992
      vertex 10.6861460225903 -2.12560660351849 19.99999999992
   endloop
endfacet
facet normal -0.880731392452199 -0.470760737047514 0.0519282466841756
   outer loop
      vertex 9.05927716080576 6.05321547384079 19.99999999992
      vertex 8.27727999043889 5.53070166968787 1.999999999992
      vertex 10.0661294464367 4.16952733731732 19.99999999992
   endloop
endfacet
facet normal -0.0978848974126832 -0.993842041802828 0.0519282466841979
   outer loop
      vertex 2.1256066035185 10.6861460225903 19.99999999992
      vertex 2.8199664825479e-015 10.8954999999564 19.99999999992
      vertex 2.8199664825479e-015 9.95499999996017 1.999999999992
   endloop
endfacet
facet normal 0.0 1.66533453693773e-016 1.0
   outer loop
      vertex 12.750208645191 -2.53617418619985 19.99999999992
      vertex 12.999999999948 2.8199664825479e-015 19.99999999992
      vertex 10.6861460225903 -2.12560660351849 19.99999999992
   endloop
endfacet
facet normal 0.0 1.66533453693773e-016 1.0
   outer loop
      vertex 10.6861460225903 -2.12560660351849 19.99999999992
      vertex 12.999999999948 2.8199664825479e-015 19.99999999992
      vertex 10.8954999999564 2.8199664825479e-015 19.99999999992
   endloop
endfacet
facet normal -0.63353737245083 0.771967521923302 0.0519282466842017
   outer loop
      vertex 7.70428193438718 -7.70428193438717 19.99999999992
      vertex 7.03924800668384 -7.03924800668384 1.999999999992
      vertex 6.05321547384078 -9.05927716080576 19.99999999992
   endloop
endfacet
facet normal 0.0 1.66533453693773e-016 1.0
   outer loop
      vertex 3.80961356917876 -9.1972207461132 1.999999999992
      vertex 7.03924800668384 -7.03924800668384 1.999999999992
      vertex 8.27727999043889 -5.53070166968788 1.999999999992
   endloop
endfacet
facet normal 0.0 -1.66533453693773e-016 -1.0
   outer loop
      vertex 11.7649999999529 0.0 6.88338275270484e-016
      vertex 10.8694426999515 4.50227058175699 -6.14403941733822e-017
      vertex 11.5389388238978 2.29523763851082 3.06104424281337e-016
   endloop
endfacet
facet normal 0.0 1.66533453693773e-016 1.0
   outer loop
      vertex 3.80961356917876 -9.1972207461132 1.999999999992
      vertex 8.27727999043889 -5.53070166968788 1.999999999992
      vertex 9.19722074611321 -3.80961356917876 1.999999999992
   endloop
endfacet
facet normal 0.0 1.66533453693773e-016 1.0
   outer loop
      vertex 3.80961356917876 -9.1972207461132 1.999999999992
      vertex 9.19722074611321 -3.80961356917876 1.999999999992
      vertex 9.76371746637494 -1.94212415566323 1.999999999992
   endloop
endfacet
facet normal 0.0 -1.66533453693773e-016 -1.0
   outer loop
      vertex 11.7649999999529 0.0 6.88338275270484e-016
      vertex 8.31911128062672 8.31911128062672 -6.97072057955114e-016
      vertex 9.78223998869987 6.53628379144985 -4.00171638842292e-016
   endloop
endfacet
facet normal 0.0 1.66533453693773e-016 1.0
   outer loop
      vertex 3.80961356917876 -9.1972207461132 1.999999999992
      vertex 9.76371746637494 -1.94212415566323 1.999999999992
      vertex 9.95499999996017 0.0 1.999999999992
   endloop
endfacet
facet normal 0.0 -1.66533453693773e-016 -1.0
   outer loop
      vertex 11.7649999999529 0.0 6.88338275270484e-016
      vertex 6.53628379144985 9.78223998869987 -9.40731934909044e-016
      vertex 8.31911128062672 8.31911128062672 -6.97072057955114e-016
   endloop
endfacet
facet normal 0.771967521923164 0.633537372451 0.0519282466841769
   outer loop
      vertex -9.05927716080576 -6.05321547384078 19.99999999992
      vertex -7.03924800668384 -7.03924800668384 1.999999999992
      vertex -8.27727999043888 -5.53070166968788 1.999999999992
   endloop
endfacet
facet normal 0.0 -1.66533453693773e-016 -1.0
   outer loop
      vertex 11.7649999999529 0.0 6.88338275270484e-016
      vertex 4.50227058175699 10.8694426999515 -1.12178755727902e-015
      vertex 6.53628379144985 9.78223998869987 -9.40731934909044e-016
   endloop
endfacet
facet normal 0.0 1.66533453693773e-016 1.0
   outer loop
      vertex 3.80961356917876 -9.1972207461132 1.999999999992
      vertex 5.53070166968788 -8.27727999043888 1.999999999992
      vertex 7.03924800668384 -7.03924800668384 1.999999999992
   endloop
endfacet
facet normal -0.289893030524446 0.955649249489403 0.0519282466841831
   outer loop
      vertex 3.80961356917876 -9.1972207461132 1.999999999992
      vertex 1.94212415566323 -9.76371746637494 1.999999999992
      vertex 2.1256066035185 -10.6861460225902 19.99999999992
   endloop
endfacet
facet normal 0.0 -1.66533453693773e-016 -1.0
   outer loop
      vertex 11.7649999999529 0.0 6.88338275270484e-016
      vertex 2.29523763851082 11.5389388238978 -1.23328105903439e-015
      vertex 4.50227058175699 10.8694426999515 -1.12178755727902e-015
   endloop
endfacet
facet normal 0.0 -1.66533453693773e-016 -1.0
   outer loop
      vertex 11.7649999999529 0.0 6.88338275270484e-016
      vertex 9.78223998869987 6.53628379144985 -4.00171638842292e-016
      vertex 10.8694426999515 4.50227058175699 -6.14403941733822e-017
   endloop
endfacet
facet normal -0.633537372450999 0.771967521923165 0.051928246684177
   outer loop
      vertex 7.03924800668384 -7.03924800668384 1.999999999992
      vertex 5.53070166968788 -8.27727999043888 1.999999999992
      vertex 6.05321547384078 -9.05927716080576 19.99999999992
   endloop
endfacet
facet normal 0.0 -1.66533453693773e-016 -1.0
   outer loop
      vertex 11.7649999999529 0.0 6.88338275270484e-016
      vertex 2.8199664825479e-015 11.7649999999529 -1.27092780742892e-015
      vertex 2.29523763851082 11.5389388238978 -1.23328105903439e-015
   endloop
endfacet
facet normal 0.880731392452393 -0.47076073704715 0.0519282466841734
   outer loop
      vertex -9.05927716080576 6.05321547384079 19.99999999992
      vertex -9.1972207461132 3.80961356917876 1.999999999992
      vertex -8.27727999043888 5.53070166968787 1.999999999992
   endloop
endfacet
facet normal 0.0 -1.66533453693773e-016 -1.0
   outer loop
      vertex 11.7649999999529 0.0 6.88338275270484e-016
      vertex -2.29523763851081 11.5389388238978 -1.23328105903439e-015
      vertex 2.8199664825479e-015 11.7649999999529 -1.27092780742892e-015
   endloop
endfacet
facet normal 0.0 1.66533453693773e-016 1.0
   outer loop
      vertex -12.0104339225989 -4.97488462072609 19.99999999992
      vertex -10.6861460225902 -2.12560660351849 19.99999999992
      vertex -12.750208645191 -2.53617418619985 19.99999999992
   endloop
endfacet
facet normal -0.771967521923302 -0.63353737245083 0.051928246684202
   outer loop
      vertex 7.70428193438718 7.70428193438718 19.99999999992
      vertex 7.03924800668384 7.03924800668384 1.999999999992
      vertex 9.05927716080576 6.05321547384079 19.99999999992
   endloop
endfacet
facet normal 0.0 1.66533453693773e-016 1.0
   outer loop
      vertex -12.0104339225989 -4.97488462072609 19.99999999992
      vertex -10.0661294464367 -4.16952733731732 19.99999999992
      vertex -10.6861460225902 -2.12560660351849 19.99999999992
   endloop
endfacet
facet normal -0.993842041802828 0.0978848974126829 0.0519282466841978
   outer loop
      vertex 10.8954999999564 2.8199664825479e-015 19.99999999992
      vertex 9.95499999996017 0.0 1.999999999992
      vertex 10.6861460225903 -2.12560660351849 19.99999999992
   endloop
endfacet
facet normal 0.0 1.66533453693773e-016 1.0
   outer loop
      vertex -10.8091049598898 -7.2224130292261 19.99999999992
      vertex -10.0661294464367 -4.16952733731732 19.99999999992
      vertex -12.0104339225989 -4.97488462072609 19.99999999992
   endloop
endfacet
facet normal 0.0 1.66533453693773e-016 1.0
   outer loop
      vertex -10.8091049598898 -7.2224130292261 19.99999999992
      vertex -9.05927716080576 -6.05321547384078 19.99999999992
      vertex -10.0661294464367 -4.16952733731732 19.99999999992
   endloop
endfacet
facet normal 0.0 1.66533453693773e-016 1.0
   outer loop
      vertex -9.19238815538822 -9.19238815538822 19.99999999992
      vertex -7.70428193438718 -7.70428193438717 19.99999999992
      vertex -10.8091049598898 -7.2224130292261 19.99999999992
   endloop
endfacet
facet normal -0.993842041802828 -0.0978848974126828 0.0519282466841853
   outer loop
      vertex 10.6861460225903 2.1256066035185 19.99999999992
      vertex 9.76371746637494 1.94212415566323 1.999999999992
      vertex 10.8954999999564 2.8199664825479e-015 19.99999999992
   endloop
endfacet
facet normal 0.0 1.66533453693773e-016 1.0
   outer loop
      vertex -7.2224130292261 -10.8091049598898 19.99999999992
      vertex -7.70428193438718 -7.70428193438717 19.99999999992
      vertex -9.19238815538822 -9.19238815538822 19.99999999992
   endloop
endfacet
facet normal 0.0 1.66533453693773e-016 1.0
   outer loop
      vertex -7.2224130292261 -10.8091049598898 19.99999999992
      vertex -6.05321547384078 -9.05927716080576 19.99999999992
      vertex -7.70428193438718 -7.70428193438717 19.99999999992
   endloop
endfacet
facet normal 0.0 1.66533453693773e-016 1.0
   outer loop
      vertex 3.80961356917876 -9.1972207461132 1.999999999992
      vertex 9.76371746637494 1.94212415566323 1.999999999992
      vertex 9.19722074611321 3.80961356917876 1.999999999992
   endloop
endfacet
facet normal 0.0 1.66533453693773e-016 1.0
   outer loop
      vertex -4.97488462072609 -12.0104339225989 19.99999999992
      vertex -6.05321547384078 -9.05927716080576 19.99999999992
      vertex -7.2224130292261 -10.8091049598898 19.99999999992
   endloop
endfacet
facet normal 0.0 1.66533453693773e-016 1.0
   outer loop
      vertex 3.80961356917876 -9.1972207461132 1.999999999992
      vertex 3.80961356917876 9.19722074611321 1.999999999992
      vertex 1.94212415566323 9.76371746637494 1.999999999992
   endloop
endfacet
facet normal 0.0 1.66533453693773e-016 1.0
   outer loop
      vertex -4.97488462072609 -12.0104339225989 19.99999999992
      vertex -4.16952733731732 -10.0661294464367 19.99999999992
      vertex -6.05321547384078 -9.05927716080576 19.99999999992
   endloop
endfacet
facet normal 0.0 1.66533453693773e-016 1.0
   outer loop
      vertex 3.80961356917876 -9.1972207461132 1.999999999992
      vertex 1.94212415566323 9.76371746637494 1.999999999992
      vertex 2.8199664825479e-015 9.95499999996017 1.999999999992
   endloop
endfacet
facet normal 0.0 1.66533453693773e-016 1.0
   outer loop
      vertex -2.53617418619985 -12.750208645191 19.99999999992
      vertex -4.16952733731732 -10.0661294464367 19.99999999992
      vertex -4.97488462072609 -12.0104339225989 19.99999999992
   endloop
endfacet
facet normal 0.0 1.66533453693773e-016 1.0
   outer loop
      vertex 3.80961356917876 -9.1972207461132 1.999999999992
      vertex 2.8199664825479e-015 9.95499999996017 1.999999999992
      vertex -1.94212415566323 9.76371746637494 1.999999999992
   endloop
endfacet
facet normal 0.0 1.66533453693773e-016 1.0
   outer loop
      vertex -2.53617418619985 -12.750208645191 19.99999999992
      vertex -2.12560660351849 -10.6861460225902 19.99999999992
      vertex -4.16952733731732 -10.0661294464367 19.99999999992
   endloop
endfacet
facet normal 0.0 1.66533453693773e-016 1.0
   outer loop
      vertex 3.80961356917876 -9.1972207461132 1.999999999992
      vertex -1.94212415566323 9.76371746637494 1.999999999992
      vertex -3.80961356917876 9.19722074611321 1.999999999992
   endloop
endfacet
facet normal 0.0 1.66533453693773e-016 1.0
   outer loop
      vertex 2.8199664825479e-015 -12.999999999948 19.99999999992
      vertex -2.12560660351849 -10.6861460225902 19.99999999992
      vertex -2.53617418619985 -12.750208645191 19.99999999992
   endloop
endfacet
facet normal 0.0 1.66533453693773e-016 1.0
   outer loop
      vertex 3.80961356917876 -9.1972207461132 1.999999999992
      vertex -3.80961356917876 9.19722074611321 1.999999999992
      vertex -5.53070166968787 8.27727999043889 1.999999999992
   endloop
endfacet
facet normal 0.0 1.66533453693773e-016 1.0
   outer loop
      vertex 2.8199664825479e-015 -12.999999999948 19.99999999992
      vertex 2.8199664825479e-015 -10.8954999999564 19.99999999992
      vertex -2.12560660351849 -10.6861460225902 19.99999999992
   endloop
endfacet
facet normal 0.0 1.66533453693773e-016 1.0
   outer loop
      vertex 3.80961356917876 -9.1972207461132 1.999999999992
      vertex -5.53070166968787 8.27727999043889 1.999999999992
      vertex -7.03924800668384 7.03924800668384 1.999999999992
   endloop
endfacet
facet normal 0.0 1.66533453693773e-016 1.0
   outer loop
      vertex 2.8199664825479e-015 -12.999999999948 19.99999999992
      vertex 2.53617418619985 -12.750208645191 19.99999999992
      vertex 2.8199664825479e-015 -10.8954999999564 19.99999999992
   endloop
endfacet
facet normal 0.0 1.66533453693773e-016 1.0
   outer loop
      vertex 3.80961356917876 -9.1972207461132 1.999999999992
      vertex -7.03924800668384 7.03924800668384 1.999999999992
      vertex -8.27727999043888 5.53070166968787 1.999999999992
   endloop
endfacet
facet normal 0.0 1.66533453693773e-016 1.0
   outer loop
      vertex 2.53617418619985 -12.750208645191 19.99999999992
      vertex 2.1256066035185 -10.6861460225902 19.99999999992
      vertex 2.8199664825479e-015 -10.8954999999564 19.99999999992
   endloop
endfacet
facet normal 0.0 1.66533453693773e-016 1.0
   outer loop
      vertex 3.80961356917876 -9.1972207461132 1.999999999992
      vertex -8.27727999043888 5.53070166968787 1.999999999992
      vertex -9.1972207461132 3.80961356917876 1.999999999992
   endloop
endfacet
facet normal 0.0 1.66533453693773e-016 1.0
   outer loop
      vertex 2.53617418619985 -12.750208645191 19.99999999992
      vertex 4.9748846207261 -12.0104339225989 19.99999999992
      vertex 2.1256066035185 -10.6861460225902 19.99999999992
   endloop
endfacet
facet normal 0.0 1.66533453693773e-016 1.0
   outer loop
      vertex 3.80961356917876 -9.1972207461132 1.999999999992
      vertex -9.1972207461132 3.80961356917876 1.999999999992
      vertex -9.76371746637494 1.94212415566323 1.999999999992
   endloop
endfacet
facet normal 0.0 1.66533453693773e-016 1.0
   outer loop
      vertex 4.9748846207261 -12.0104339225989 19.99999999992
      vertex 4.16952733731732 -10.0661294464367 19.99999999992
      vertex 2.1256066035185 -10.6861460225902 19.99999999992
   endloop
endfacet
facet normal 0.0 1.66533453693773e-016 1.0
   outer loop
      vertex 3.80961356917876 -9.1972207461132 1.999999999992
      vertex -9.76371746637494 1.94212415566323 1.999999999992
      vertex -9.95499999996017 0.0 1.999999999992
   endloop
endfacet
facet normal 0.0 1.66533453693773e-016 1.0
   outer loop
      vertex 4.9748846207261 -12.0104339225989 19.99999999992
      vertex 7.22241302922611 -10.8091049598898 19.99999999992
      vertex 4.16952733731732 -10.0661294464367 19.99999999992
   endloop
endfacet
facet normal 0.0 1.66533453693773e-016 1.0
   outer loop
      vertex 7.22241302922611 -10.8091049598898 19.99999999992
      vertex 6.05321547384078 -9.05927716080576 19.99999999992
      vertex 4.16952733731732 -10.0661294464367 19.99999999992
   endloop
endfacet
facet normal 0.0 -1.66533453693773e-016 -1.0
   outer loop
      vertex -9.78223998869986 -6.53628379144985 1.77684818938326e-015
      vertex -10.8694426999515 -4.50227058175699 1.43811694471435e-015
      vertex 11.7649999999529 0.0 6.88338275270484e-016
   endloop
endfacet
facet normal -0.633537372450999 -0.771967521923163 0.0519282466842031
   outer loop
      vertex 7.70428193438718 7.70428193438718 19.99999999992
      vertex 5.53070166968788 8.27727999043889 1.999999999992
      vertex 7.03924800668384 7.03924800668384 1.999999999992
   endloop
endfacet
facet normal 0.0 -1.66533453693773e-016 -1.0
   outer loop
      vertex -2.29523763851081 -11.5389388238978 2.60995760957536e-015
      vertex -4.50227058175699 -10.8694426999515 2.49846410781998e-015
      vertex 11.7649999999529 0.0 6.88338275270484e-016
   endloop
endfacet
facet normal 0.0 -1.66533453693773e-016 -1.0
   outer loop
      vertex -6.53628379144985 -9.78223998869987 2.31740848545001e-015
      vertex -8.31911128062672 -8.31911128062672 2.07374860849608e-015
      vertex 11.7649999999529 0.0 6.88338275270484e-016
   endloop
endfacet
facet normal 0.0 -1.66533453693773e-016 -1.0
   outer loop
      vertex 2.8199664825479e-015 -11.7649999999529 2.64760435796989e-015
      vertex -2.29523763851081 -11.5389388238978 2.60995760957536e-015
      vertex 11.7649999999529 0.0 6.88338275270484e-016
   endloop
endfacet
facet normal 0.289893030524445 -0.955649249489403 0.0519282466841835
   outer loop
      vertex -1.94212415566323 9.76371746637494 1.999999999992
      vertex -2.12560660351849 10.6861460225903 19.99999999992
      vertex -3.80961356917876 9.19722074611321 1.999999999992
   endloop
endfacet
facet normal 0.0 -1.66533453693773e-016 -1.0
   outer loop
      vertex -8.31911128062672 -8.31911128062672 2.07374860849608e-015
      vertex -9.78223998869986 -6.53628379144985 1.77684818938326e-015
      vertex 11.7649999999529 0.0 6.88338275270484e-016
   endloop
endfacet
facet normal 0.0 -1.66533453693773e-016 -1.0
   outer loop
      vertex -4.50227058175699 -10.8694426999515 2.49846410781998e-015
      vertex -6.53628379144985 -9.78223998869987 2.31740848545001e-015
      vertex 11.7649999999529 0.0 6.88338275270484e-016
   endloop
endfacet
facet normal 0.0 1.66533453693773e-016 1.0
   outer loop
      vertex -10.6861460225902 -2.12560660351849 19.99999999992
      vertex -10.8954999999564 2.8199664825479e-015 19.99999999992
      vertex -12.999999999948 2.8199664825479e-015 19.99999999992
   endloop
endfacet
facet normal -0.289893030524444 -0.955649249489402 0.051928246684216
   outer loop
      vertex 4.16952733731732 10.0661294464367 19.99999999992
      vertex 1.94212415566323 9.76371746637494 1.999999999992
      vertex 3.80961356917876 9.19722074611321 1.999999999992
   endloop
endfacet
facet normal 0.955649249489482 0.289893030524181 0.0519282466842144
   outer loop
      vertex -10.0661294464367 -4.16952733731732 19.99999999992
      vertex -9.1972207461132 -3.80961356917876 1.999999999992
      vertex -10.6861460225902 -2.12560660351849 19.99999999992
   endloop
endfacet
facet normal 0.0 1.66533453693773e-016 1.0
   outer loop
      vertex 2.8199664825479e-015 -9.95499999996017 1.999999999992
      vertex 1.94212415566323 -9.76371746637494 1.999999999992
      vertex 3.80961356917876 -9.1972207461132 1.999999999992
   endloop
endfacet
facet normal 0.771967521923302 0.633537372450829 0.0519282466842018
   outer loop
      vertex -7.70428193438718 -7.70428193438717 19.99999999992
      vertex -7.03924800668384 -7.03924800668384 1.999999999992
      vertex -9.05927716080576 -6.05321547384078 19.99999999992
   endloop
endfacet
facet normal 0.0 1.66533453693773e-016 1.0
   outer loop
      vertex 3.80961356917876 -9.1972207461132 1.999999999992
      vertex 9.95499999996017 0.0 1.999999999992
      vertex 9.76371746637494 1.94212415566323 1.999999999992
   endloop
endfacet
facet normal 0.0 1.66533453693773e-016 1.0
   outer loop
      vertex 3.80961356917876 -9.1972207461132 1.999999999992
      vertex 5.53070166968788 8.27727999043889 1.999999999992
      vertex 3.80961356917876 9.19722074611321 1.999999999992
   endloop
endfacet
facet normal -0.289893030524181 0.955649249489482 0.0519282466842144
   outer loop
      vertex 4.16952733731732 -10.0661294464367 19.99999999992
      vertex 3.80961356917876 -9.1972207461132 1.999999999992
      vertex 2.1256066035185 -10.6861460225902 19.99999999992
   endloop
endfacet
facet normal 0.289893030524181 0.955649249489483 0.0519282466841845
   outer loop
      vertex -1.94212415566323 -9.76371746637494 1.999999999992
      vertex -4.16952733731732 -10.0661294464367 19.99999999992
      vertex -2.12560660351849 -10.6861460225902 19.99999999992
   endloop
endfacet
facet normal 0.0978848974126832 -0.993842041802828 0.0519282466841856
   outer loop
      vertex 2.8199664825479e-015 10.8954999999564 19.99999999992
      vertex -2.12560660351849 10.6861460225903 19.99999999992
      vertex -1.94212415566323 9.76371746637494 1.999999999992
   endloop
endfacet
facet normal 0.955649249489483 -0.289893030524182 0.0519282466841848
   outer loop
      vertex -10.6861460225902 2.1256066035185 19.99999999992
      vertex -9.76371746637494 1.94212415566323 1.999999999992
      vertex -10.0661294464367 4.16952733731732 19.99999999992
   endloop
endfacet
facet normal 0.633537372450831 0.771967521923302 0.0519282466841783
   outer loop
      vertex -5.53070166968787 -8.27727999043888 1.999999999992
      vertex -7.70428193438718 -7.70428193438717 19.99999999992
      vertex -6.05321547384078 -9.05927716080576 19.99999999992
   endloop
endfacet
facet normal 0.0 1.66533453693773e-016 1.0
   outer loop
      vertex 3.80961356917876 -9.1972207461132 1.999999999992
      vertex 8.27727999043889 5.53070166968787 1.999999999992
      vertex 7.03924800668384 7.03924800668384 1.999999999992
   endloop
endfacet
facet normal 0.0 1.66533453693773e-016 1.0
   outer loop
      vertex 3.80961356917876 -9.1972207461132 1.999999999992
      vertex -7.03924800668384 -7.03924800668384 1.999999999992
      vertex -5.53070166968787 -8.27727999043888 1.999999999992
   endloop
endfacet
facet normal 0.771967521923303 -0.63353737245083 0.0519282466841785
   outer loop
      vertex -9.05927716080576 6.05321547384079 19.99999999992
      vertex -8.27727999043888 5.53070166968787 1.999999999992
      vertex -7.70428193438718 7.70428193438718 19.99999999992
   endloop
endfacet
facet normal 0.0 1.66533453693773e-016 1.0
   outer loop
      vertex -12.750208645191 2.53617418619986 19.99999999992
      vertex -10.0661294464367 4.16952733731732 19.99999999992
      vertex -12.0104339225989 4.9748846207261 19.99999999992
   endloop
endfacet
facet normal 0.470760737047514 -0.880731392452199 0.0519282466841756
   outer loop
      vertex -4.16952733731732 10.0661294464367 19.99999999992
      vertex -6.05321547384078 9.05927716080576 19.99999999992
      vertex -5.53070166968787 8.27727999043889 1.999999999992
   endloop
endfacet
facet normal 0.0 1.66533453693773e-016 1.0
   outer loop
      vertex -12.750208645191 -2.53617418619985 19.99999999992
      vertex -10.6861460225902 -2.12560660351849 19.99999999992
      vertex -12.999999999948 2.8199664825479e-015 19.99999999992
   endloop
endfacet
facet normal -0.0978848974126827 0.993842041802828 0.0519282466841852
   outer loop
      vertex 2.1256066035185 -10.6861460225902 19.99999999992
      vertex 1.94212415566323 -9.76371746637494 1.999999999992
      vertex 2.8199664825479e-015 -10.8954999999564 19.99999999992
   endloop
endfacet
facet normal 0.0 1.66533453693773e-016 1.0
   outer loop
      vertex -1.94212415566323 -9.76371746637494 1.999999999992
      vertex 3.80961356917876 -9.1972207461132 1.999999999992
      vertex -3.80961356917876 -9.1972207461132 1.999999999992
   endloop
endfacet
facet normal -0.955649249489482 -0.289893030524181 0.0519282466842147
   outer loop
      vertex 10.0661294464367 4.16952733731732 19.99999999992
      vertex 9.19722074611321 3.80961356917876 1.999999999992
      vertex 10.6861460225903 2.1256066035185 19.99999999992
   endloop
endfacet
facet normal 0.880731392452197 -0.470760737047513 0.0519282466842202
   outer loop
      vertex -10.0661294464367 4.16952733731732 19.99999999992
      vertex -9.1972207461132 3.80961356917876 1.999999999992
      vertex -9.05927716080576 6.05321547384079 19.99999999992
   endloop
endfacet
facet normal 0.0 1.66533453693773e-016 1.0
   outer loop
      vertex 3.80961356917876 -9.1972207461132 1.999999999992
      vertex -9.95499999996017 0.0 1.999999999992
      vertex -9.76371746637494 -1.94212415566323 1.999999999992
   endloop
endfacet
facet normal 0.470760737047513 0.880731392452197 0.0519282466842201
   outer loop
      vertex -3.80961356917876 -9.1972207461132 1.999999999992
      vertex -6.05321547384078 -9.05927716080576 19.99999999992
      vertex -4.16952733731732 -10.0661294464367 19.99999999992
   endloop
endfacet
facet normal 0.0 1.66533453693773e-016 1.0
   outer loop
      vertex 3.80961356917876 -9.1972207461132 1.999999999992
      vertex 9.19722074611321 3.80961356917876 1.999999999992
      vertex 8.27727999043889 5.53070166968787 1.999999999992
   endloop
endfacet
facet normal 0.0 1.66533453693773e-016 1.0
   outer loop
      vertex 3.80961356917876 -9.1972207461132 1.999999999992
      vertex 7.03924800668384 7.03924800668384 1.999999999992
      vertex 5.53070166968788 8.27727999043889 1.999999999992
   endloop
endfacet
facet normal -0.470760737047515 0.880731392452198 0.0519282466841752
   outer loop
      vertex 6.05321547384078 -9.05927716080576 19.99999999992
      vertex 5.53070166968788 -8.27727999043888 1.999999999992
      vertex 4.16952733731732 -10.0661294464367 19.99999999992
   endloop
endfacet
facet normal 0.633537372450998 0.771967521923164 0.0519282466842029
   outer loop
      vertex -5.53070166968787 -8.27727999043888 1.999999999992
      vertex -7.03924800668384 -7.03924800668384 1.999999999992
      vertex -7.70428193438718 -7.70428193438717 19.99999999992
   endloop
endfacet
facet normal 0.993842041802828 -0.0978848974126833 0.0519282466841978
   outer loop
      vertex -10.8954999999564 2.8199664825479e-015 19.99999999992
      vertex -9.95499999996017 0.0 1.999999999992
      vertex -10.6861460225902 2.1256066035185 19.99999999992
   endloop
endfacet
facet normal -0.289893030524182 -0.955649249489483 0.0519282466841849
   outer loop
      vertex 4.16952733731732 10.0661294464367 19.99999999992
      vertex 2.1256066035185 10.6861460225903 19.99999999992
      vertex 1.94212415566323 9.76371746637494 1.999999999992
   endloop
endfacet
facet normal -0.63353737245083 -0.771967521923303 0.0519282466841783
   outer loop
      vertex 7.70428193438718 7.70428193438718 19.99999999992
      vertex 6.05321547384078 9.05927716080576 19.99999999992
      vertex 5.53070166968788 8.27727999043889 1.999999999992
   endloop
endfacet
facet normal -0.771967521923303 0.633537372450831 0.0519282466841782
   outer loop
      vertex 9.05927716080576 -6.05321547384078 19.99999999992
      vertex 8.27727999043889 -5.53070166968788 1.999999999992
      vertex 7.70428193438718 -7.70428193438717 19.99999999992
   endloop
endfacet
facet normal -0.470760737047514 -0.880731392452196 0.0519282466842202
   outer loop
      vertex 6.05321547384078 9.05927716080576 19.99999999992
      vertex 4.16952733731732 10.0661294464367 19.99999999992
      vertex 3.80961356917876 9.19722074611321 1.999999999992
   endloop
endfacet
facet normal -0.955649249489483 0.289893030524181 0.0519282466841846
   outer loop
      vertex 10.6861460225903 -2.12560660351849 19.99999999992
      vertex 9.76371746637494 -1.94212415566323 1.999999999992
      vertex 10.0661294464367 -4.16952733731732 19.99999999992
   endloop
endfacet
facet normal 0.0 1.66533453693773e-016 1.0
   outer loop
      vertex -10.6861460225902 2.1256066035185 19.99999999992
      vertex -10.0661294464367 4.16952733731732 19.99999999992
      vertex -12.750208645191 2.53617418619986 19.99999999992
   endloop
endfacet
facet normal 0.0 1.66533453693773e-016 1.0
   outer loop
      vertex -10.8954999999564 2.8199664825479e-015 19.99999999992
      vertex -10.6861460225902 2.1256066035185 19.99999999992
      vertex -12.999999999948 2.8199664825479e-015 19.99999999992
   endloop
endfacet
facet normal 0.0 1.66533453693773e-016 1.0
   outer loop
      vertex -12.999999999948 2.8199664825479e-015 19.99999999992
      vertex -10.6861460225902 2.1256066035185 19.99999999992
      vertex -12.750208645191 2.53617418619986 19.99999999992
   endloop
endfacet
facet normal 0.0 1.66533453693773e-016 1.0
   outer loop
      vertex 3.80961356917876 -9.1972207461132 1.999999999992
      vertex -9.1972207461132 -3.80961356917876 1.999999999992
      vertex -8.27727999043888 -5.53070166968788 1.999999999992
   endloop
endfacet
facet normal 0.993842041802828 0.0978848974126833 0.0519282466841854
   outer loop
      vertex -10.6861460225902 -2.12560660351849 19.99999999992
      vertex -9.76371746637494 -1.94212415566323 1.999999999992
      vertex -10.8954999999564 2.8199664825479e-015 19.99999999992
   endloop
endfacet
facet normal 0.0 1.66533453693773e-016 1.0
   outer loop
      vertex -10.0661294464367 4.16952733731732 19.99999999992
      vertex -9.05927716080576 6.05321547384079 19.99999999992
      vertex -12.0104339225989 4.9748846207261 19.99999999992
   endloop
endfacet
facet normal -0.880731392452196 0.470760737047514 0.0519282466842201
   outer loop
      vertex 10.0661294464367 -4.16952733731732 19.99999999992
      vertex 9.19722074611321 -3.80961356917876 1.999999999992
      vertex 9.05927716080576 -6.05321547384078 19.99999999992
   endloop
endfacet
facet normal -0.993842041802839 -0.0978848974125678 0.0519282466841984
   outer loop
      vertex 10.8954999999564 2.8199664825479e-015 19.99999999992
      vertex 9.76371746637494 1.94212415566323 1.999999999992
      vertex 9.95499999996017 0.0 1.999999999992
   endloop
endfacet
facet normal 0.63353737245083 -0.771967521923302 0.0519282466842021
   outer loop
      vertex -6.05321547384078 9.05927716080576 19.99999999992
      vertex -7.70428193438718 7.70428193438718 19.99999999992
      vertex -7.03924800668384 7.03924800668384 1.999999999992
   endloop
endfacet
facet normal 0.880731392452198 0.470760737047515 0.0519282466841752
   outer loop
      vertex -9.05927716080576 -6.05321547384078 19.99999999992
      vertex -8.27727999043888 -5.53070166968788 1.999999999992
      vertex -10.0661294464367 -4.16952733731732 19.99999999992
   endloop
endfacet
facet normal 0.289893030524181 -0.955649249489482 0.0519282466842147
   outer loop
      vertex -2.12560660351849 10.6861460225903 19.99999999992
      vertex -4.16952733731732 10.0661294464367 19.99999999992
      vertex -3.80961356917876 9.19722074611321 1.999999999992
   endloop
endfacet
facet normal 0.0978848974126829 0.993842041802828 0.0519282466841976
   outer loop
      vertex 2.8199664825479e-015 -9.95499999996017 1.999999999992
      vertex -2.12560660351849 -10.6861460225902 19.99999999992
      vertex 2.8199664825479e-015 -10.8954999999564 19.99999999992
   endloop
endfacet
endsolid minimug
